<svg width="500" height="500" viewBox="0 0 500 500" fill="none" xmlns="http://www.w3.org/2000/svg">
<g clip-path="url(#clip0_241_2307)">
<path d="M80 319C86.5755 317.942 93.5415 316.981 100 319C104.519 322.73 106.576 328.538 108.916 333.769C110.536 337.103 112.63 339.926 114.938 342.813C115.759 343.844 116.58 344.875 117.426 345.938C121.75 351.146 126.333 356.1 131 361C131.665 361.718 132.33 362.436 133.016 363.176C150.581 381.59 174.957 394.707 199.006 402.364C200.807 402.938 202.597 403.544 204.387 404.152C223.698 410.096 245.471 411.107 265.5 409.125C266.373 409.046 267.245 408.968 268.145 408.887C298.818 405.933 328.701 393.809 353 375C353.94 374.283 354.879 373.567 355.848 372.828C366.302 364.585 375.527 355.26 383.688 344.75C384.511 343.694 384.511 343.694 385.351 342.618C388.125 338.931 390.416 335.338 392.336 331.137C396.773 321.618 396.773 321.618 400 319C406.475 317.012 413.415 317.941 420 319C408.051 357.981 370.396 390.175 335.711 408.649C327.733 412.733 319.417 415.948 311 419C310.323 419.251 309.646 419.503 308.948 419.761C263.35 436.43 211.727 430.817 168.375 410.75C130.836 392.843 96.2297 359.739 80 321C80 320.34 80 319.68 80 319Z" fill="#E74C3C"/>
<path d="M374.367 96.9377C391.002 111.823 403.907 128.669 415 148C415.377 148.634 415.753 149.269 416.141 149.922C419 154.779 419 154.779 419 157C401.215 158.459 401.215 158.459 396.652 155.453C395.147 153.048 394.102 150.614 393 148C391.651 145.886 390.25 143.805 388.812 141.75C388.239 140.923 388.239 140.923 387.654 140.079C361.426 102.638 321.849 78.9116 277.142 70.4599C268.263 68.9458 259.54 68.6014 250.562 68.6252C249.82 68.6254 249.077 68.6256 248.312 68.6258C235.524 68.662 223.43 69.8456 211 73.0002C210.267 73.1768 209.533 73.3534 208.777 73.5353C165.408 84.1611 128.454 112.562 105.312 150.438C104.379 152.014 104.379 152.014 103.426 153.621C102 156 102 156 101 157C99.5113 157.087 98.0186 157.107 96.5273 157.098C95.6282 157.095 94.7291 157.091 93.8027 157.088C92.3844 157.075 92.3844 157.075 90.9375 157.063C89.9881 157.058 89.0387 157.054 88.0605 157.049C85.707 157.037 83.3535 157.021 81 157C96.9582 115.357 136.215 82.5341 175.967 64.759C242.418 36.178 320.263 49.3883 374.367 96.9377Z" fill="#E74C3C"/>
<path d="M50 181C57.59 181 65.18 181 73 181C77.5 192.25 77.5 192.25 78.9229 196.358C79.2429 197.278 79.5629 198.198 79.8926 199.146C80.222 200.101 80.5513 201.056 80.8906 202.039C81.2401 203.046 81.5896 204.053 81.9496 205.09C83.052 208.268 84.151 211.446 85.25 214.625C86.0024 216.796 86.755 218.966 87.5078 221.137C89.341 226.424 91.1716 231.711 93 237C95.1342 234.866 95.6005 233.702 96.5405 230.893C96.8278 230.044 97.115 229.196 97.411 228.321C97.7162 227.401 98.0215 226.48 98.3359 225.531C98.6566 224.581 98.9772 223.631 99.3075 222.652C100.336 219.603 101.356 216.552 102.375 213.5C103.388 210.477 104.403 207.455 105.421 204.433C106.054 202.553 106.684 200.672 107.311 198.79C107.605 197.916 107.898 197.043 108.201 196.143C108.452 195.389 108.704 194.636 108.963 193.859C110.532 189.532 112.29 185.274 114 181C121.92 181 129.84 181 138 181C133.495 193.974 128.709 206.824 123.814 219.656C122.566 222.928 121.321 226.201 120.076 229.475C115.435 241.67 110.746 253.845 106 266C97.75 266 89.5 266 81 266C79.8514 262.929 78.7029 259.859 77.5195 256.695C76.3624 253.604 75.2049 250.513 74.0473 247.422C73.2262 245.23 72.4052 243.037 71.5845 240.844C67.3988 229.664 63.2063 218.486 58.9102 207.348C58.4506 206.155 58.4506 206.155 57.9817 204.938C56.5649 201.262 55.1421 197.59 53.7102 193.92C53.2103 192.628 52.7105 191.336 52.2109 190.043C51.7809 188.94 51.3508 187.837 50.9077 186.7C50 184 50 184 50 181Z" fill="#E74C3C"/>
<path d="M336.812 305.688C337.982 305.71 339.152 305.733 340.357 305.756C343.24 305.815 346.119 305.897 349 306C349 308.64 349 311.28 349 314C342.73 314 336.46 314 330 314C330.33 315.32 330.66 316.64 331 318C332.097 318.014 333.194 318.029 334.324 318.043C335.779 318.09 337.233 318.138 338.688 318.188C339.409 318.194 340.13 318.199 340.873 318.205C344.943 318.373 346.638 318.725 349.988 321.27C352.597 324.81 352.607 326.613 352.367 330.844C351.871 333.758 350.857 335.715 349 338C346.182 339.409 343.827 339.112 340.68 339.098C339.423 339.095 338.166 339.091 336.871 339.088C335.552 339.08 334.234 339.071 332.875 339.063C331.535 339.058 330.195 339.053 328.855 339.049C325.57 339.037 322.285 339.021 319 339C319 336.03 319 333.06 319 330C326.26 330.33 333.52 330.66 341 331C341 329.68 341 328.36 341 327C339.831 327.058 338.662 327.116 337.457 327.176C335.909 327.223 334.361 327.268 332.812 327.313C332.044 327.355 331.275 327.397 330.482 327.44C326.277 327.53 324.502 327.363 320.988 324.824C318.802 321.719 318.322 320.254 318.375 316.5C318.362 315.582 318.349 314.665 318.336 313.719C320.668 304.17 328.778 305.395 336.812 305.688Z" fill="#E74C3C"/>
<path d="M258.998 306C262.628 306 266.258 306 269.998 306C270.328 313.92 270.658 321.84 270.998 330C274.298 330 277.598 330 280.998 330C280.998 322.08 280.998 314.16 280.998 306C284.628 306 288.258 306 291.998 306C291.998 316.89 291.998 327.78 291.998 339C288.698 339 285.398 339 281.998 339C281.668 338.34 281.338 337.68 280.998 337C280.029 337.495 279.059 337.99 278.061 338.5C273.73 340.336 269.644 340.809 264.998 340C262.128 338.206 260.507 337.017 258.998 334C258.913 331.895 258.891 329.787 258.901 327.68C258.904 326.423 258.907 325.166 258.91 323.871C258.919 322.552 258.927 321.234 258.936 319.875C258.941 318.535 258.945 317.195 258.949 315.855C258.961 312.57 258.978 309.285 258.998 306Z" fill="#E74C3C"/>
<path d="M216 295C219.63 295 223.26 295 227 295C227.33 306.55 227.66 318.1 228 330C229.65 330.33 231.3 330.66 233 331C233 333.64 233 336.28 233 339C230.918 339.135 228.834 339.232 226.75 339.312C225.589 339.371 224.429 339.429 223.234 339.488C220 339 220 339 217.822 337.033C215.34 332.903 215.491 329.706 215.609 324.98C215.615 324.122 215.62 323.263 215.626 322.379C215.648 319.648 215.699 316.918 215.75 314.188C215.77 312.331 215.788 310.475 215.804 308.619C215.848 304.079 215.917 299.54 216 295Z" fill="#E74C3C"/>
<path d="M178.587 295.659C182.25 296.025 184.096 296.784 187 299C189.228 302.884 189.298 306.518 189.312 310.938L189.363 314.527C188.953 318.448 188.207 320.733 186 324C181.071 327.53 176.438 327.368 170.625 327.188L168.105 327.146C166.07 327.111 164.035 327.058 162 327V339H151V296L166.188 295.812C167.76 295.785 169.334 295.758 170.954 295.729C172.2 295.722 173.447 295.715 174.73 295.707C176.639 295.683 176.64 295.683 178.587 295.659ZM176 304C172.742 303.805 172.742 303.805 162 304V318C166.688 318.085 171.324 318.28 176 318C178 316 178 316 178.266 313.688L178.25 311L178.266 308.312C178 306 178 306 176 304Z" fill="#E74C3C"/>
<path d="M259.997 202H274.997V218H259.997C260.117 222.254 260.239 226.509 260.369 230.763C260.413 232.211 260.454 233.659 260.494 235.107C260.552 237.185 260.616 239.262 260.681 241.34C260.717 242.591 260.753 243.843 260.791 245.133C260.674 247.896 260.675 247.896 261.997 249L275.997 250V201H294.997C295.997 202 295.997 202 296.06 205.562L295.997 209L298.192 207.539L301.122 205.625L304.005 203.727C308.98 200.856 313.142 199.735 318.872 199.875L321.802 199.93L323.997 200V202L327.86 201.52C335.145 200.797 342.433 200.741 349.747 200.705C351.377 200.693 353.007 200.673 354.637 200.644C357.021 200.601 359.405 200.584 361.79 200.574C362.87 200.548 362.87 200.548 363.972 200.521C369.523 200.545 372.53 201.948 376.997 205C379.434 207.75 379.435 207.75 380.997 210L382.677 208.504L384.872 206.562L387.052 204.629C390.173 202.015 391.997 201.877 395.997 201.887C397.558 201.887 397.559 201.887 399.151 201.887C400.278 201.892 401.406 201.897 402.567 201.902C403.719 201.904 404.87 201.905 406.056 201.906C409.744 201.912 413.433 201.925 417.122 201.938C419.618 201.943 422.114 201.947 424.61 201.951C430.739 201.962 436.868 201.979 442.997 202C443.09 211.527 443.161 221.055 443.204 230.583C443.225 235.007 443.253 239.431 443.299 243.855C443.342 248.128 443.366 252.402 443.376 256.675C443.383 258.302 443.398 259.929 443.42 261.556C443.449 263.841 443.453 266.126 443.451 268.412C443.46 269.711 443.468 271.01 443.478 272.349C442.722 278.084 440.58 281.772 435.935 285.375C430.327 288.477 425.503 288.191 419.247 288.188L416.052 288.189C404.971 288.117 394.011 287.151 382.997 286V270H420.997L421.997 262C421.132 262.16 420.267 262.32 419.376 262.485C413.928 263.316 408.499 263.267 402.997 263.312L399.474 263.4C388.776 263.48 388.775 263.48 383.997 259L381.997 256L380.997 266H361.997V260L360.021 261.023L357.372 262.375L354.771 263.711C346.09 267.745 335.556 269.006 326.251 266.16C322.275 263.928 319.417 260.839 317.622 256.641C315.993 249.756 315.274 240.168 318.685 233.75C321.928 229.893 325.291 226.873 329.997 225C333.205 224.773 333.205 224.773 336.95 224.805C337.61 224.808 338.27 224.811 338.95 224.813C341.049 224.825 343.148 224.85 345.247 224.875C346.674 224.885 348.101 224.894 349.528 224.902C353.018 224.924 356.508 224.959 359.997 225C359.812 220.658 359.812 220.658 357.997 217C355.297 216.869 352.635 216.81 349.935 216.812C348.719 216.813 348.718 216.812 347.478 216.812C340.837 216.874 334.457 217.561 327.88 218.496C322.858 219.148 317.846 219.424 312.79 219.656C307.818 220.107 302.909 221.107 297.997 222V266C273.318 267.103 273.317 267.103 261.372 267.25C260.105 267.282 260.105 267.282 258.812 267.314C252.815 267.348 248.004 266.528 243.255 262.535C238.966 256.959 238.852 252.833 238.899 245.953C238.901 245.182 238.902 244.411 238.903 243.616C238.909 241.161 238.922 238.705 238.935 236.25C238.94 234.582 238.944 232.914 238.948 231.246C238.959 227.164 238.977 223.082 238.997 219C236.726 219.116 234.455 219.244 232.185 219.375L228.353 219.586C223.195 220.076 218.095 221.073 212.997 222V266H190.997V242H149.997L151.997 250H189.997V265C177.467 266.254 164.969 267.225 152.372 267.375C150.801 267.414 150.801 267.414 149.198 267.453C143.116 267.469 139.624 267.054 134.997 263C129.67 257.229 128.683 252.181 128.661 244.48C128.654 243.663 128.647 242.846 128.641 242.004C128.631 240.278 128.626 238.553 128.626 236.827C128.622 234.206 128.586 231.587 128.548 228.967C128.542 227.284 128.538 225.601 128.536 223.918C128.522 223.144 128.507 222.37 128.492 221.572C128.543 215.397 130.149 210.089 134.409 205.469C139.781 200.737 144.664 199.686 151.642 199.664C152.37 199.657 153.099 199.65 153.85 199.644C155.387 199.633 156.924 199.63 158.461 199.63C160.792 199.626 163.121 199.589 165.452 199.551C174.599 199.482 181.166 199.912 188.435 206.062C189.997 208 189.997 208 190.997 211L191.997 202H210.997V209L213.192 207.539L216.122 205.625L219.005 203.727C223.98 200.856 228.142 199.735 233.872 199.875L236.802 199.93L238.997 200L239.181 197.664L239.435 194.625L239.681 191.602C239.997 189 239.997 189 240.997 187H259.997V202ZM345.449 239.707C342.656 239.651 341.471 239.636 339.241 241.358C338 243 338 243 337.688 245.562C338 248 338 248 340 250C346.915 250.723 353.387 250.035 360 248V240C357.798 239.938 355.596 239.889 353.393 239.854L350.688 239.812L348.018 239.736L345.449 239.707ZM406.57 217.707C404.063 217.659 404.063 217.659 402 218C400 221 400 221 399.741 223.512L399.734 226.473L399.727 229.697L399.75 233.062L399.727 236.439L399.734 239.66C399.741 242.617 399.741 242.617 400 245C402 247 402 247 403.848 247.243C404.601 247.239 405.332 247.235 406.062 247.23L408.477 247.225L411 247.188C414.766 247.185 418.582 247.709 422 246V218L412.125 217.812C411.068 217.784 410.042 217.757 409.017 217.729C408.185 217.722 407.377 217.715 406.57 217.707ZM161 215.875L158.438 215.863L156 215.867C151 215.875 151 215.875 151 227H171V217C170 216 170 216 168.25 215.871C167.485 215.87 166.743 215.868 166 215.867L163.562 215.863L161 215.875Z" fill="#E74C3C"/>
</g>
<defs>
<clipPath id="clip0_241_2307">
<rect width="500" height="500" fill="white"/>
</clipPath>
</defs>
</svg>
